<svg xmlns="http://www.w3.org/2000/svg" viewBox="0 0 96 96" role="img" aria-labelledby="title desc">
  <title id="title">GamjaBox symbol</title>
  <desc id="desc">A friendly potato-shaped cloud infrastructure symbol.</desc>
  <defs>
    <linearGradient id="g" x1="18" y1="14" x2="80" y2="84" gradientUnits="userSpaceOnUse">
      <stop stop-color="#19CF70"/>
      <stop offset=".52" stop-color="#08B85B"/>
      <stop offset="1" stop-color="#078C47"/>
    </linearGradient>
    <filter id="s" x="-30%" y="-30%" width="160%" height="160%">
      <feDropShadow dx="0" dy="6" stdDeviation="6" flood-color="#064C2A" flood-opacity=".18"/>
    </filter>
  </defs>

  <g filter="url(#s)">
    <path
      d="M25.7 16.1C36.4 8.7 55.2 8.1 68.6 14.5C82.3 21.1 90.1 36.6 88.2 52.4C86.3 68.3 76.5 83.1 60.9 87.7C45.4 92.3 28.6 87.2 19.6 74.8C10.5 62.4 9.7 43.7 16.4 29.7C18.9 24.4 22 18.7 25.7 16.1Z"
      fill="url(#g)"
    />

    <path d="M28.5 24.5C37 18.9 50.7 18 61.5 21.8" fill="none" stroke="white" stroke-opacity=".35" stroke-width="5.5" stroke-linecap="round"/>

    <circle cx="25.5" cy="46.5" r="2.7" fill="#046C37" opacity=".32"/>
    <circle cx="68" cy="30.5" r="2.3" fill="#046C37" opacity=".27"/>
    <circle cx="71" cy="67" r="3" fill="#046C37" opacity=".24"/>
    <circle cx="37" cy="75" r="2.2" fill="#046C37" opacity=".22"/>

    <rect x="28" y="30" width="40" height="37" rx="11" fill="white" fill-opacity=".97"/>
    <rect x="35" y="38" width="26" height="5" rx="2.5" fill="#087E43"/>
    <circle cx="58" cy="40.5" r="2" fill="#20D778"/>
    <rect x="35" y="47" width="26" height="5" rx="2.5" fill="#BCEFD0"/>
    <circle cx="58" cy="49.5" r="2" fill="#08B85B"/>
    <rect x="35" y="56" width="18" height="5" rx="2.5" fill="#087E43"/>
    <path d="M57 58.5H61" stroke="#20D778" stroke-width="4" stroke-linecap="round"/>
  </g>
</svg>